<mxfile host="app.diagrams.net" modified="2021-11-30T17:33:33.862Z" agent="5.0 (Windows)" etag="d4G6qQ3yx7G5oFzMtjXC" version="15.8.7" type="github">
  <diagram id="gZ6J2-f2doP4_xg0yxNd" name="Page-1">
    <mxGraphModel dx="1808" dy="516" grid="1" gridSize="10" guides="1" tooltips="1" connect="1" arrows="1" fold="1" page="1" pageScale="1" pageWidth="827" pageHeight="1169" math="0" shadow="0">
      <root>
        <mxCell id="0" />
        <mxCell id="1" parent="0" />
        <mxCell id="zVJ6mTNKbye57cvXcRB_-15" style="edgeStyle=orthogonalEdgeStyle;rounded=0;orthogonalLoop=1;jettySize=auto;html=1;exitX=0.5;exitY=1;exitDx=0;exitDy=0;exitPerimeter=0;entryX=0.5;entryY=0;entryDx=0;entryDy=0;endArrow=classic;endFill=1;" edge="1" parent="1" source="zVJ6mTNKbye57cvXcRB_-1" target="zVJ6mTNKbye57cvXcRB_-14">
          <mxGeometry relative="1" as="geometry" />
        </mxCell>
        <mxCell id="zVJ6mTNKbye57cvXcRB_-1" value="Start" style="strokeWidth=2;html=1;shape=mxgraph.flowchart.start_1;whiteSpace=wrap;fillColor=default;align=center;" vertex="1" parent="1">
          <mxGeometry x="90" y="120" width="100" height="60" as="geometry" />
        </mxCell>
        <mxCell id="zVJ6mTNKbye57cvXcRB_-2" value="" style="strokeWidth=2;html=1;shape=mxgraph.flowchart.start_1;whiteSpace=wrap;fillColor=default;align=center;" vertex="1" parent="1">
          <mxGeometry x="-190" y="40" width="40" height="30" as="geometry" />
        </mxCell>
        <mxCell id="zVJ6mTNKbye57cvXcRB_-3" value="" style="strokeWidth=2;html=1;shape=mxgraph.flowchart.terminator;whiteSpace=wrap;fillColor=default;align=center;" vertex="1" parent="1">
          <mxGeometry x="-190" y="80" width="40" height="30" as="geometry" />
        </mxCell>
        <mxCell id="zVJ6mTNKbye57cvXcRB_-4" value="" style="rounded=1;whiteSpace=wrap;html=1;absoluteArcSize=1;arcSize=14;strokeWidth=2;fillColor=default;align=center;" vertex="1" parent="1">
          <mxGeometry x="-190" y="120" width="40" height="30" as="geometry" />
        </mxCell>
        <mxCell id="zVJ6mTNKbye57cvXcRB_-5" value="" style="verticalLabelPosition=bottom;verticalAlign=top;html=1;shape=process;whiteSpace=wrap;rounded=1;size=0.14;arcSize=6;fillColor=default;" vertex="1" parent="1">
          <mxGeometry x="-190" y="160" width="40" height="30" as="geometry" />
        </mxCell>
        <mxCell id="zVJ6mTNKbye57cvXcRB_-6" value="&lt;div align=&quot;left&quot;&gt;Start&lt;/div&gt;" style="text;html=1;align=left;verticalAlign=middle;resizable=0;points=[];autosize=1;strokeColor=none;fillColor=none;" vertex="1" parent="1">
          <mxGeometry x="-140" y="45" width="40" height="20" as="geometry" />
        </mxCell>
        <mxCell id="zVJ6mTNKbye57cvXcRB_-7" value="&lt;div align=&quot;left&quot;&gt;End&lt;/div&gt;" style="text;html=1;align=left;verticalAlign=middle;resizable=0;points=[];autosize=1;strokeColor=none;fillColor=none;" vertex="1" parent="1">
          <mxGeometry x="-140" y="85" width="40" height="20" as="geometry" />
        </mxCell>
        <mxCell id="zVJ6mTNKbye57cvXcRB_-8" value="&lt;div align=&quot;left&quot;&gt;Proceso&lt;/div&gt;" style="text;html=1;align=left;verticalAlign=middle;resizable=0;points=[];autosize=1;strokeColor=none;fillColor=none;" vertex="1" parent="1">
          <mxGeometry x="-140" y="125" width="60" height="20" as="geometry" />
        </mxCell>
        <mxCell id="zVJ6mTNKbye57cvXcRB_-9" value="Función" style="text;html=1;align=left;verticalAlign=middle;resizable=0;points=[];autosize=1;strokeColor=none;fillColor=none;" vertex="1" parent="1">
          <mxGeometry x="-140" y="165" width="60" height="20" as="geometry" />
        </mxCell>
        <mxCell id="zVJ6mTNKbye57cvXcRB_-10" value="" style="strokeWidth=2;html=1;shape=mxgraph.flowchart.decision;whiteSpace=wrap;fillColor=default;align=left;" vertex="1" parent="1">
          <mxGeometry x="-190" y="200" width="40" height="30" as="geometry" />
        </mxCell>
        <mxCell id="zVJ6mTNKbye57cvXcRB_-11" value="Condición" style="text;html=1;align=left;verticalAlign=middle;resizable=0;points=[];autosize=1;strokeColor=none;fillColor=none;" vertex="1" parent="1">
          <mxGeometry x="-140" y="205" width="70" height="20" as="geometry" />
        </mxCell>
        <mxCell id="zVJ6mTNKbye57cvXcRB_-12" value="" style="shape=parallelogram;html=1;strokeWidth=2;perimeter=parallelogramPerimeter;whiteSpace=wrap;rounded=1;arcSize=12;size=0.23;fillColor=default;align=center;" vertex="1" parent="1">
          <mxGeometry x="-190" y="240" width="40" height="30" as="geometry" />
        </mxCell>
        <mxCell id="zVJ6mTNKbye57cvXcRB_-13" value="Return" style="text;html=1;align=left;verticalAlign=middle;resizable=0;points=[];autosize=1;strokeColor=none;fillColor=none;" vertex="1" parent="1">
          <mxGeometry x="-140" y="245" width="50" height="20" as="geometry" />
        </mxCell>
        <mxCell id="zVJ6mTNKbye57cvXcRB_-17" style="edgeStyle=orthogonalEdgeStyle;rounded=0;orthogonalLoop=1;jettySize=auto;html=1;exitX=0.5;exitY=1;exitDx=0;exitDy=0;endArrow=classic;endFill=1;" edge="1" parent="1" source="zVJ6mTNKbye57cvXcRB_-14" target="zVJ6mTNKbye57cvXcRB_-16">
          <mxGeometry relative="1" as="geometry" />
        </mxCell>
        <mxCell id="zVJ6mTNKbye57cvXcRB_-14" value="&lt;div&gt;int longitudNumero = 0&lt;/div&gt;int i = 0" style="rounded=1;whiteSpace=wrap;html=1;absoluteArcSize=1;arcSize=14;strokeWidth=2;" vertex="1" parent="1">
          <mxGeometry x="70" y="210" width="140" height="50" as="geometry" />
        </mxCell>
        <mxCell id="zVJ6mTNKbye57cvXcRB_-26" style="edgeStyle=orthogonalEdgeStyle;rounded=0;orthogonalLoop=1;jettySize=auto;html=1;exitX=0.5;exitY=1;exitDx=0;exitDy=0;exitPerimeter=0;entryX=0.5;entryY=0;entryDx=0;entryDy=0;endArrow=classic;endFill=1;" edge="1" parent="1" source="zVJ6mTNKbye57cvXcRB_-16" target="zVJ6mTNKbye57cvXcRB_-25">
          <mxGeometry relative="1" as="geometry" />
        </mxCell>
        <mxCell id="zVJ6mTNKbye57cvXcRB_-34" style="edgeStyle=orthogonalEdgeStyle;rounded=0;orthogonalLoop=1;jettySize=auto;html=1;exitX=1;exitY=0.5;exitDx=0;exitDy=0;exitPerimeter=0;endArrow=classic;endFill=1;entryX=0.5;entryY=0;entryDx=0;entryDy=0;" edge="1" parent="1" source="zVJ6mTNKbye57cvXcRB_-16" target="zVJ6mTNKbye57cvXcRB_-36">
          <mxGeometry relative="1" as="geometry">
            <mxPoint x="140" y="590" as="targetPoint" />
            <Array as="points">
              <mxPoint x="340" y="320" />
              <mxPoint x="340" y="640" />
              <mxPoint x="140" y="640" />
            </Array>
          </mxGeometry>
        </mxCell>
        <mxCell id="zVJ6mTNKbye57cvXcRB_-16" value="i &amp;lt; arrayDigits.length" style="strokeWidth=2;html=1;shape=mxgraph.flowchart.decision;whiteSpace=wrap;" vertex="1" parent="1">
          <mxGeometry x="70" y="290" width="140" height="60" as="geometry" />
        </mxCell>
        <mxCell id="zVJ6mTNKbye57cvXcRB_-19" style="edgeStyle=orthogonalEdgeStyle;rounded=0;orthogonalLoop=1;jettySize=auto;html=1;exitX=0.5;exitY=1;exitDx=0;exitDy=0;exitPerimeter=0;endArrow=classic;endFill=1;" edge="1" parent="1" source="zVJ6mTNKbye57cvXcRB_-18" target="zVJ6mTNKbye57cvXcRB_-1">
          <mxGeometry relative="1" as="geometry" />
        </mxCell>
        <mxCell id="zVJ6mTNKbye57cvXcRB_-18" value="int[] arrayDigits" style="strokeWidth=2;html=1;shape=mxgraph.flowchart.direct_data;whiteSpace=wrap;" vertex="1" parent="1">
          <mxGeometry x="70" y="40" width="140" height="50" as="geometry" />
        </mxCell>
        <mxCell id="zVJ6mTNKbye57cvXcRB_-20" value="" style="strokeWidth=2;html=1;shape=mxgraph.flowchart.direct_data;whiteSpace=wrap;" vertex="1" parent="1">
          <mxGeometry x="-190" y="280" width="40" height="30" as="geometry" />
        </mxCell>
        <mxCell id="zVJ6mTNKbye57cvXcRB_-21" value="Datos Externos" style="text;html=1;align=left;verticalAlign=middle;resizable=0;points=[];autosize=1;strokeColor=none;fillColor=none;" vertex="1" parent="1">
          <mxGeometry x="-140" y="285" width="100" height="20" as="geometry" />
        </mxCell>
        <mxCell id="zVJ6mTNKbye57cvXcRB_-23" value="No" style="text;html=1;align=center;verticalAlign=middle;resizable=0;points=[];autosize=1;strokeColor=none;fillColor=none;" vertex="1" parent="1">
          <mxGeometry x="210" y="300" width="30" height="20" as="geometry" />
        </mxCell>
        <mxCell id="zVJ6mTNKbye57cvXcRB_-24" value="&lt;div&gt;Si&lt;/div&gt;" style="text;html=1;align=center;verticalAlign=middle;resizable=0;points=[];autosize=1;strokeColor=none;fillColor=none;" vertex="1" parent="1">
          <mxGeometry x="110" y="350" width="30" height="20" as="geometry" />
        </mxCell>
        <mxCell id="zVJ6mTNKbye57cvXcRB_-28" style="edgeStyle=orthogonalEdgeStyle;rounded=0;orthogonalLoop=1;jettySize=auto;html=1;exitX=0.5;exitY=1;exitDx=0;exitDy=0;entryX=0.5;entryY=0;entryDx=0;entryDy=0;entryPerimeter=0;endArrow=classic;endFill=1;" edge="1" parent="1" source="zVJ6mTNKbye57cvXcRB_-25" target="zVJ6mTNKbye57cvXcRB_-27">
          <mxGeometry relative="1" as="geometry" />
        </mxCell>
        <mxCell id="zVJ6mTNKbye57cvXcRB_-25" value="longitudNumero = arrayDigits.length - i" style="rounded=1;whiteSpace=wrap;html=1;" vertex="1" parent="1">
          <mxGeometry x="20" y="380" width="240" height="60" as="geometry" />
        </mxCell>
        <mxCell id="zVJ6mTNKbye57cvXcRB_-32" style="edgeStyle=orthogonalEdgeStyle;rounded=0;orthogonalLoop=1;jettySize=auto;html=1;exitX=1;exitY=0.5;exitDx=0;exitDy=0;exitPerimeter=0;endArrow=classic;endFill=1;" edge="1" parent="1" source="zVJ6mTNKbye57cvXcRB_-27">
          <mxGeometry relative="1" as="geometry">
            <mxPoint x="250" y="499.8620689655173" as="targetPoint" />
          </mxGeometry>
        </mxCell>
        <mxCell id="zVJ6mTNKbye57cvXcRB_-40" style="edgeStyle=orthogonalEdgeStyle;rounded=0;orthogonalLoop=1;jettySize=auto;html=1;exitX=0.5;exitY=1;exitDx=0;exitDy=0;exitPerimeter=0;endArrow=classic;endFill=1;" edge="1" parent="1" source="zVJ6mTNKbye57cvXcRB_-27" target="zVJ6mTNKbye57cvXcRB_-39">
          <mxGeometry relative="1" as="geometry" />
        </mxCell>
        <mxCell id="zVJ6mTNKbye57cvXcRB_-27" value="arrayDigits[i] != 0" style="strokeWidth=2;html=1;shape=mxgraph.flowchart.decision;whiteSpace=wrap;" vertex="1" parent="1">
          <mxGeometry x="70" y="470" width="140" height="60" as="geometry" />
        </mxCell>
        <mxCell id="zVJ6mTNKbye57cvXcRB_-30" value="No" style="text;html=1;align=center;verticalAlign=middle;resizable=0;points=[];autosize=1;strokeColor=none;fillColor=none;" vertex="1" parent="1">
          <mxGeometry x="110" y="530" width="30" height="20" as="geometry" />
        </mxCell>
        <mxCell id="zVJ6mTNKbye57cvXcRB_-31" value="&lt;div&gt;Si&lt;/div&gt;" style="text;html=1;align=center;verticalAlign=middle;resizable=0;points=[];autosize=1;strokeColor=none;fillColor=none;" vertex="1" parent="1">
          <mxGeometry x="210" y="480" width="30" height="20" as="geometry" />
        </mxCell>
        <mxCell id="zVJ6mTNKbye57cvXcRB_-35" style="edgeStyle=orthogonalEdgeStyle;rounded=0;orthogonalLoop=1;jettySize=auto;html=1;exitX=1;exitY=0.5;exitDx=0;exitDy=0;endArrow=none;endFill=0;dashed=1;" edge="1" parent="1" source="zVJ6mTNKbye57cvXcRB_-33">
          <mxGeometry relative="1" as="geometry">
            <mxPoint x="340" y="499.8620689655173" as="targetPoint" />
          </mxGeometry>
        </mxCell>
        <mxCell id="zVJ6mTNKbye57cvXcRB_-33" value="break" style="rounded=1;whiteSpace=wrap;html=1;" vertex="1" parent="1">
          <mxGeometry x="250" y="475" width="60" height="50" as="geometry" />
        </mxCell>
        <mxCell id="zVJ6mTNKbye57cvXcRB_-38" style="edgeStyle=orthogonalEdgeStyle;rounded=0;orthogonalLoop=1;jettySize=auto;html=1;exitX=0.5;exitY=1;exitDx=0;exitDy=0;entryX=0.5;entryY=0;entryDx=0;entryDy=0;entryPerimeter=0;endArrow=classic;endFill=1;" edge="1" parent="1" source="zVJ6mTNKbye57cvXcRB_-36" target="zVJ6mTNKbye57cvXcRB_-37">
          <mxGeometry relative="1" as="geometry" />
        </mxCell>
        <mxCell id="zVJ6mTNKbye57cvXcRB_-36" value="longitudNumero" style="shape=parallelogram;html=1;strokeWidth=2;perimeter=parallelogramPerimeter;whiteSpace=wrap;rounded=1;arcSize=12;size=0.23;" vertex="1" parent="1">
          <mxGeometry x="70" y="670" width="140" height="50" as="geometry" />
        </mxCell>
        <mxCell id="zVJ6mTNKbye57cvXcRB_-37" value="End" style="strokeWidth=2;html=1;shape=mxgraph.flowchart.terminator;whiteSpace=wrap;" vertex="1" parent="1">
          <mxGeometry x="90" y="750" width="100" height="60" as="geometry" />
        </mxCell>
        <mxCell id="zVJ6mTNKbye57cvXcRB_-41" style="edgeStyle=orthogonalEdgeStyle;rounded=0;orthogonalLoop=1;jettySize=auto;html=1;exitX=0;exitY=0.5;exitDx=0;exitDy=0;entryX=0;entryY=0.5;entryDx=0;entryDy=0;entryPerimeter=0;endArrow=classic;endFill=1;" edge="1" parent="1" source="zVJ6mTNKbye57cvXcRB_-39" target="zVJ6mTNKbye57cvXcRB_-16">
          <mxGeometry relative="1" as="geometry">
            <Array as="points">
              <mxPoint x="-10" y="585" />
              <mxPoint x="-10" y="320" />
            </Array>
          </mxGeometry>
        </mxCell>
        <mxCell id="zVJ6mTNKbye57cvXcRB_-39" value="i++" style="rounded=1;whiteSpace=wrap;html=1;" vertex="1" parent="1">
          <mxGeometry x="100" y="560" width="80" height="50" as="geometry" />
        </mxCell>
      </root>
    </mxGraphModel>
  </diagram>
</mxfile>
